<svg width="500" height="451" viewBox="0 0 500 451" fill="none" xmlns="http://www.w3.org/2000/svg">
<path d="M18.1685 450.011C18.1685 450.011 74.7549 412.633 134.093 358.163C193.431 412.633 250.018 450.011 250.018 450.011C250.018 450.011 500.018 284.943 500.018 142.86H499.736C499.912 140.126 500.018 137.356 500.018 134.569C500 60.2378 440.062 0 366.119 0C327.948 0 293.551 16.1046 269.192 41.8401C281.856 60.3965 290.8 81.6517 295.033 104.6L301.436 97.3153C314.754 74.0845 339.537 59.638 366.119 59.638C407.218 59.638 440.68 93.2583 440.68 134.569C440.68 136.122 440.591 137.674 440.503 139.208L439.462 156.283C427.115 227.387 322.797 322.903 249.947 377.231C225.729 359.292 200.399 338.513 176.392 316.447C179.761 312.848 183.095 309.197 186.376 305.528C186.376 305.528 186.393 305.51 186.411 305.493C189.621 301.912 192.779 298.278 195.883 294.627C195.971 294.539 196.042 294.433 196.13 294.345C236.735 246.56 268.204 193.272 268.204 142.86H267.922C268.098 140.302 268.168 137.727 268.168 135.134C268.168 134.957 268.168 134.763 268.168 134.569C268.168 131.765 268.063 128.995 267.886 126.244C267.851 125.556 267.78 124.868 267.727 124.162C267.551 121.887 267.322 119.629 267.04 117.389C266.987 116.93 266.934 116.454 266.863 115.995C258.273 53.4643 206.978 4.70966 143.512 0.352783C143.301 0.352783 143.089 0.317505 142.895 0.299866C140.038 0.123474 137.18 0 134.27 0C134.199 0 134.146 0 134.075 0C134.005 0 133.952 0 133.881 0C130.989 0 128.113 0.123474 125.256 0.299866C125.062 0.299866 124.85 0.335144 124.656 0.352783C61.208 4.69202 9.8957 53.4643 1.30542 115.978C1.23486 116.436 1.18195 116.912 1.12903 117.389C0.846802 119.629 0.617493 121.887 0.441101 124.162C0.388184 124.85 0.335266 125.538 0.282349 126.226C0.105957 128.978 0.000122096 131.765 0.000122096 134.552C0.000122096 134.746 0.000122096 134.94 0.000122096 135.134C0.000122096 137.727 0.105957 140.302 0.247071 142.842H-0.0351562C-0.0351562 201.139 42.0519 263.3 91.6885 316.341C88.3018 319.445 84.8975 322.497 81.4931 325.531C80.717 326.219 79.9409 326.907 79.1647 327.595C75.8838 330.488 72.6206 333.345 69.3397 336.15C51.6123 351.355 34.079 365.29 18.0803 377.214L18.1508 449.993L18.1685 450.011ZM59.5323 139.261C59.4265 137.709 59.3559 136.139 59.3559 134.552C59.3559 121.446 62.7427 109.134 68.6518 98.4089L69.6219 97.2977C81.158 77.1537 101.337 63.6245 123.827 60.3965C124.092 60.3613 124.356 60.3083 124.621 60.2731C125.75 60.1143 126.914 60.0261 128.061 59.9203C129.754 59.7792 131.447 59.6733 133.176 59.6557C133.493 59.6557 133.811 59.6204 134.128 59.6204C134.446 59.6204 134.763 59.6557 135.081 59.6557C136.81 59.6557 138.503 59.7792 140.196 59.9203C141.343 60.0261 142.489 60.1143 143.618 60.2731C143.9 60.3083 144.183 60.3613 144.465 60.3965C166.937 63.6421 187.099 77.1537 198.617 97.28L199.587 98.3913C205.496 109.116 208.883 121.446 208.883 134.552C208.883 136.104 208.813 137.656 208.707 139.191L207.666 156.265C202.551 185.652 181.719 219.202 153.92 252.293C150.833 255.98 147.64 259.649 144.394 263.318C144.324 263.388 144.271 263.459 144.2 263.529C140.919 267.216 137.568 270.885 134.164 274.536C95.6044 232.978 66.2529 190.203 60.4496 155.066L59.5676 139.244L59.5323 139.261Z" fill="url(#paint0_linear_10_6)"/>
<defs>
<linearGradient id="paint0_linear_10_6" x1="0.000122096" y1="225.005" x2="500" y2="225.005" gradientUnits="userSpaceOnUse">
<stop stop-color="#22BBB4"/>
<stop offset="1" stop-color="#00ACE2"/>
</linearGradient>
</defs>
</svg>
